<svg width="24" height="24" viewBox="0 0 24 24" fill="none" xmlns="http://www.w3.org/2000/svg">
<path d="M19.1597 3.55647C16.6365 1.03326 12.5276 1.03326 10.007 3.55647L3.01596 10.5422C2.97042 10.5877 2.94631 10.6493 2.94631 10.7136C2.94631 10.7779 2.97042 10.8395 3.01596 10.885L4.00435 11.8734C4.04953 11.9184 4.11069 11.9437 4.17444 11.9437C4.23819 11.9437 4.29935 11.9184 4.34453 11.8734L11.3356 4.88772C12.2035 4.01987 13.3579 3.54308 14.5847 3.54308C15.8115 3.54308 16.966 4.01987 17.8311 4.88772C18.699 5.75558 19.1758 6.91004 19.1758 8.13415C19.1758 9.36094 18.699 10.5127 17.8311 11.3806L10.7061 18.5029L9.55167 19.6574C8.47221 20.7368 6.71774 20.7368 5.63828 19.6574C5.11596 19.135 4.82935 18.4413 4.82935 17.702C4.82935 16.9627 5.11596 16.269 5.63828 15.7467L12.707 8.68058C12.8865 8.50379 13.1222 8.40469 13.374 8.40469H13.3767C13.6285 8.40469 13.8615 8.50379 14.0383 8.68058C14.2177 8.86004 14.3142 9.09576 14.3142 9.34754C14.3142 9.59665 14.2151 9.83237 14.0383 10.0092L8.2606 15.7815C8.21506 15.827 8.19096 15.8886 8.19096 15.9529C8.19096 16.0172 8.21506 16.0788 8.2606 16.1243L9.24899 17.1127C9.29417 17.1577 9.35533 17.183 9.41908 17.183C9.48283 17.183 9.54399 17.1577 9.58917 17.1127L15.3642 11.3377C15.8972 10.8047 16.1892 10.0975 16.1892 9.34487C16.1892 8.59219 15.8945 7.88237 15.3642 7.35201C14.2633 6.25112 12.474 6.25379 11.3731 7.35201L10.6874 8.0404L4.30703 14.4181C3.87399 14.8486 3.53072 15.3608 3.29714 15.925C3.06356 16.4891 2.94431 17.0941 2.94631 17.7047C2.94631 18.9449 3.43114 20.11 4.30703 20.9859C5.21506 21.8913 6.40435 22.344 7.59364 22.344C8.78292 22.344 9.97221 21.8913 10.8776 20.9859L19.1597 12.7092C20.3785 11.4877 21.0535 9.86183 21.0535 8.13415C21.0561 6.40379 20.3811 4.7779 19.1597 3.55647Z" fill="black" fill-opacity="0.45"/>
</svg>
