<svg width="14" height="14" viewBox="0 0 14 14" fill="none" xmlns="http://www.w3.org/2000/svg">
<path d="M1.5 3H0.5C0.354 3 0.234167 2.95317 0.1405 2.8595C0.0468333 2.76583 0 2.646 0 2.5C0 2.354 0.0468333 2.23417 0.1405 2.1405C0.234167 2.04683 0.354 2 0.5 2H4.5V0.5C4.5 0.354 4.54683 0.234167 4.6405 0.1405C4.73417 0.0468333 4.854 0 5 0H9C9.146 0 9.26583 0.0468333 9.3595 0.1405C9.45317 0.234167 9.5 0.354 9.5 0.5V2H13.5C13.646 2 13.7658 2.04683 13.8595 2.1405C13.9532 2.23417 14 2.354 14 2.5C14 2.646 13.9532 2.76583 13.8595 2.8595C13.7658 2.95317 13.646 3 13.5 3H12.5V13.5C12.5 13.646 12.4532 13.7658 12.3595 13.8595C12.2658 13.9532 12.146 14 12 14H2C1.854 14 1.73417 13.9532 1.6405 13.8595C1.54683 13.7658 1.5 13.646 1.5 13.5V3ZM8.5 2V1H5.5V2H8.5ZM2.5 13H11.5V3H2.5V13ZM5.5 11C5.354 11 5.23417 10.9532 5.1405 10.8595C5.04683 10.7658 5 10.646 5 10.5V5.5C5 5.354 5.04683 5.23417 5.1405 5.1405C5.23417 5.04683 5.354 5 5.5 5C5.646 5 5.76583 5.04683 5.8595 5.1405C5.95317 5.23417 6 5.354 6 5.5V10.5C6 10.646 5.95317 10.7658 5.8595 10.8595C5.76583 10.9532 5.646 11 5.5 11ZM8.5 11C8.354 11 8.23417 10.9532 8.1405 10.8595C8.04683 10.7658 8 10.646 8 10.5V5.5C8 5.354 8.04683 5.23417 8.1405 5.1405C8.23417 5.04683 8.354 5 8.5 5C8.646 5 8.76583 5.04683 8.8595 5.1405C8.95317 5.23417 9 5.354 9 5.5V10.5C9 10.646 8.95317 10.7658 8.8595 10.8595C8.76583 10.9532 8.646 11 8.5 11Z" fill="black" fill-opacity="0.6"/>
</svg>
