<svg width="24" height="24" viewBox="0 0 24 24" fill="none" xmlns="http://www.w3.org/2000/svg">
<path d="M19.0003 11.9983H18.0003C17.9217 11.9983 17.8574 12.0626 17.8574 12.1412V17.8555H6.14314V6.14118H11.8574C11.936 6.14118 12.0003 6.0769 12.0003 5.99833V4.99833C12.0003 4.91975 11.936 4.85547 11.8574 4.85547H5.42885C5.11278 4.85547 4.85742 5.11083 4.85742 5.4269V18.5698C4.85742 18.8858 5.11278 19.1412 5.42885 19.1412H18.5717C18.8878 19.1412 19.1431 18.8858 19.1431 18.5698V12.1412C19.1431 12.0626 19.0788 11.9983 19.0003 11.9983Z" fill="black"/>
<path d="M9.21266 12.4073L9.17873 14.5305C9.17694 14.6894 9.30552 14.8198 9.46444 14.8198H9.47159L11.5787 14.768C11.6144 14.7662 11.6502 14.7519 11.6752 14.7269L19.1019 7.31618C19.1573 7.26083 19.1573 7.16975 19.1019 7.1144L16.8823 4.89654C16.8537 4.86797 16.818 4.85547 16.7805 4.85547C16.743 4.85547 16.7073 4.86975 16.6787 4.89654L9.25373 12.3073C9.22794 12.3342 9.21327 12.3699 9.21266 12.4073ZM10.3466 12.8287L16.7805 6.40904L17.5877 7.2144L11.1502 13.6376L10.3341 13.6573L10.3466 12.8287Z" fill="black"/>
</svg>
