<svg width="16" height="16" viewBox="0 0 16 16" fill="none" xmlns="http://www.w3.org/2000/svg">
<rect opacity="0.01" width="16" height="15.9919" fill="white"/>
<path d="M14.125 7.99682H13.25C13.1813 7.99682 13.125 8.05304 13.125 8.12175V13.1192H2.875V2.87443H7.875C7.94375 2.87443 8 2.81821 8 2.74949V1.87494C8 1.80622 7.94375 1.75 7.875 1.75H2.25C1.97344 1.75 1.75 1.97332 1.75 2.24975V13.7439C1.75 14.0203 1.97344 14.2436 2.25 14.2436H13.75C14.0266 14.2436 14.25 14.0203 14.25 13.7439V8.12175C14.25 8.05304 14.1938 7.99682 14.125 7.99682Z" fill="white"/>
<path fill-rule="evenodd" clip-rule="evenodd" d="M5.53127 10.2113L5.56095 8.35444C5.56095 8.32164 5.57502 8.29041 5.59689 8.26698L12.0938 1.78592C12.1188 1.76249 12.1501 1.75 12.1829 1.75C12.2157 1.75 12.247 1.76093 12.272 1.78592L14.2142 3.72555C14.2626 3.77397 14.2626 3.85361 14.2142 3.90202L7.71566 10.3831C7.69379 10.405 7.66254 10.4174 7.63129 10.419L5.78752 10.4643H5.78127C5.6422 10.4643 5.5297 10.3503 5.53127 10.2113ZM12.1829 3.10864L6.5533 8.72297L6.54236 9.4476L7.25641 9.43042L12.8892 3.81297L12.1829 3.10864Z" fill="white"/>
</svg>
