<svg width="16" height="16" viewBox="0 0 16 16" fill="none" xmlns="http://www.w3.org/2000/svg">
<rect opacity="0.01" width="16" height="15.9919" fill="white"/>
<path fill-rule="evenodd" clip-rule="evenodd" d="M13.3125 5.18575H11.4375V1.87494C11.4375 1.80622 11.3813 1.75 11.3125 1.75H4.6875C4.61875 1.75 4.5625 1.80622 4.5625 1.87494V5.18575H2.6875C1.99687 5.18575 1.4375 5.74484 1.4375 6.43511V11.5575C1.4375 11.8339 1.66094 12.0573 1.9375 12.0573H4.5625V14.1187C4.5625 14.1874 4.61875 14.2436 4.6875 14.2436H11.3125C11.3813 14.2436 11.4375 14.1874 11.4375 14.1187V12.0573H14.0625C14.3391 12.0573 14.5625 11.8339 14.5625 11.5575V6.43511C14.5625 5.74484 14.0031 5.18575 13.3125 5.18575ZM12.8125 6.80984H12.1875C12.1187 6.80984 12.0625 6.86606 12.0625 6.93478V7.55944C12.0625 7.62815 12.1187 7.68437 12.1875 7.68437H12.8125C12.8813 7.68437 12.9375 7.62815 12.9375 7.55944V6.93478C12.9375 6.86606 12.8813 6.80984 12.8125 6.80984ZM10.375 2.81189H5.625V5.18565H10.375V2.81189ZM10.375 13.1816H5.625V8.87137H10.375V13.1816ZM11.4375 10.9952H13.5V6.43502C13.5 6.33195 13.4156 6.24762 13.3125 6.24762H2.6875C2.58438 6.24762 2.5 6.33195 2.5 6.43502V10.9952H4.5625V7.80933H11.4375V10.9952Z" fill="white"/>
</svg>
