<svg width="24" height="24" viewBox="0 0 24 24" fill="none" xmlns="http://www.w3.org/2000/svg">
<path d="M20.9973 14.1437H2.35716C2.2393 14.1437 2.14287 14.2401 2.14287 14.358V15.9651C2.14287 16.083 2.2393 16.1794 2.35716 16.1794H18.5679L14.7027 21.0812C14.5929 21.2205 14.692 21.4294 14.8714 21.4294H16.8134C16.9447 21.4294 17.0679 21.3705 17.1509 21.266L21.6723 15.5312C22.1143 14.9687 21.7152 14.1437 20.9973 14.1437ZM21.6429 7.82227H5.43216L9.29734 2.92048C9.40716 2.78119 9.30805 2.57227 9.12859 2.57227H7.18662C7.05537 2.57227 6.93216 2.63119 6.84912 2.73566L2.32769 8.47048C1.88573 9.03298 2.28484 9.85798 3.00001 9.85798H21.6429C21.7607 9.85798 21.8572 9.76155 21.8572 9.6437V8.03655C21.8572 7.91869 21.7607 7.82227 21.6429 7.82227Z" fill="black" fill-opacity="0.45"/>
</svg>
